<svg xmlns="http://www.w3.org/2000/svg" width="37.179" height="37.18" viewBox="0 0 37.179 37.18">
  <path id="Path_10" data-name="Path 10" d="M147.692,112H113.487A1.486,1.486,0,0,0,112,113.487v34.205a1.486,1.486,0,0,0,1.487,1.487h34.205a1.486,1.486,0,0,0,1.487-1.487V113.487A1.486,1.486,0,0,0,147.692,112Zm-1.487,34.205h-8.556V134.782h4.833l.725-5.609h-5.558v-3.583c0-1.627.451-2.733,2.779-2.733h2.97v-5.019a39.23,39.23,0,0,0-4.331-.223c-4.285,0-7.217,2.617-7.217,7.417v4.136h-4.843v5.609h4.847v11.428H114.974V114.974h31.231Z" transform="translate(-112 -112)" fill="#d6d6d6" stroke="#000" stroke-width="0"/>
</svg>
