<svg xmlns="http://www.w3.org/2000/svg" width="12.231" height="12.231" viewBox="0 0 12.231 12.231">
  <path id="Path_32" data-name="Path 32" d="M123.741,112H112.489a.489.489,0,0,0-.489.489v11.252a.489.489,0,0,0,.489.489h11.252a.489.489,0,0,0,.489-.489V112.489A.489.489,0,0,0,123.741,112Zm-.489,11.252h-2.815v-3.758h1.59l.238-1.845h-1.828V116.47c0-.535.148-.9.914-.9h.977V113.92a12.9,12.9,0,0,0-1.425-.073,2.224,2.224,0,0,0-2.374,2.44v1.361h-1.593v1.845h1.595v3.759h-5.553V112.978h10.274Z" transform="translate(-112 -112)" fill="#867874" stroke="#000" stroke-width="0"/>
</svg>
