<svg xmlns="http://www.w3.org/2000/svg" width="39" height="37.968" viewBox="0 0 39 37.968">
  <path id="Path_12" data-name="Path 12" d="M83.5,76.3a19.492,19.492,0,0,0-6.44,37.893c1.024.257.867-.471.867-.967v-3.377c-5.913.693-6.152-3.22-6.549-3.873-.8-1.368-2.7-1.717-2.131-2.37,1.346-.693,2.719.174,4.309,2.523,1.15,1.7,3.394,1.416,4.531,1.133a5.5,5.5,0,0,1,1.512-2.649c-6.126-1.1-8.679-4.836-8.679-9.281a8.577,8.577,0,0,1,2.1-5.738,7.6,7.6,0,0,1,.214-5.228c2.531-.227,5.163,1.813,5.368,1.974a20.6,20.6,0,0,1,9.864.013c.492-.375,2.932-2.126,5.285-1.913A7.654,7.654,0,0,1,94,89.58a8.58,8.58,0,0,1,2.131,5.764c0,4.453-2.571,8.2-8.714,9.276a5.555,5.555,0,0,1,1.66,3.965v4.9c.035.392,0,.78.654.78A19.494,19.494,0,0,0,83.5,76.3Z" transform="translate(-64 -76.3)" fill="#d6d6d6" stroke="#000" stroke-width="0"/>
</svg>
