<svg xmlns="http://www.w3.org/2000/svg" width="12.829" height="12.49" viewBox="0 0 12.829 12.49">
  <path id="Path_30" data-name="Path 30" d="M70.415,76.3A6.412,6.412,0,0,0,68.3,88.765c.337.085.285-.155.285-.318V87.336c-1.945.228-2.024-1.059-2.154-1.274-.264-.45-.887-.565-.7-.78.443-.228.894.057,1.418.83a1.355,1.355,0,0,0,1.491.373,1.808,1.808,0,0,1,.5-.871c-2.015-.361-2.855-1.591-2.855-3.053a2.822,2.822,0,0,1,.692-1.888,2.5,2.5,0,0,1,.07-1.72,2.935,2.935,0,0,1,1.766.649,6.778,6.778,0,0,1,3.245,0,2.875,2.875,0,0,1,1.739-.629,2.518,2.518,0,0,1,.079,1.691,2.823,2.823,0,0,1,.7,1.9c0,1.465-.846,2.7-2.867,3.051a1.827,1.827,0,0,1,.546,1.3v1.612c.011.129,0,.257.215.257A6.413,6.413,0,0,0,70.415,76.3Z" transform="translate(-64 -76.3)" fill="#867874" stroke="#000" stroke-width="0"/>
</svg>
