<svg xmlns="http://www.w3.org/2000/svg" width="13.227" height="13.226" viewBox="0 0 13.227 13.226">
  <path id="Path_31" data-name="Path 31" d="M118.982,115.49a3.393,3.393,0,1,0,3.393,3.393A3.388,3.388,0,0,0,118.982,115.49Zm0,5.6a2.205,2.205,0,1,1,2.205-2.205A2.21,2.21,0,0,1,118.982,121.089Zm3.532-6.528a.791.791,0,1,0,.561.232A.791.791,0,0,0,122.514,114.56Zm3.082,4.323c0-.913.008-1.818-.043-2.73a3.659,3.659,0,0,0-3.84-3.84c-.913-.051-1.818-.043-2.73-.043s-1.818-.008-2.73.043a3.659,3.659,0,0,0-3.84,3.84c-.051.913-.043,1.818-.043,2.73s-.008,1.818.043,2.73a3.659,3.659,0,0,0,3.84,3.84c.913.051,1.818.043,2.73.043s1.818.008,2.73-.043a3.659,3.659,0,0,0,3.84-3.84C125.606,120.7,125.6,119.8,125.6,118.883Zm-1.456,3.9a2.257,2.257,0,0,1-1.257,1.257,14.567,14.567,0,0,1-3.9.268,14.648,14.648,0,0,1-3.9-.266,2.257,2.257,0,0,1-1.257-1.257,14.652,14.652,0,0,1-.266-3.9,14.648,14.648,0,0,1,.266-3.9,2.1,2.1,0,0,1,.5-.758,2.139,2.139,0,0,1,.758-.5,14.648,14.648,0,0,1,3.9-.266,14.648,14.648,0,0,1,3.9.266,2.257,2.257,0,0,1,1.257,1.257,14.648,14.648,0,0,1,.266,3.9A14.566,14.566,0,0,1,124.14,122.785Z" transform="translate(-112.37 -112.27)" fill="#867874" stroke="#867874" stroke-width="0"/>
</svg>
