<svg xmlns="http://www.w3.org/2000/svg" width="40.207" height="40.207" viewBox="0 0 40.207 40.207">
  <path id="Path_9" data-name="Path 9" d="M132.468,122.059a10.315,10.315,0,1,0,10.315,10.315A10.3,10.3,0,0,0,132.468,122.059Zm0,17.019a6.7,6.7,0,1,1,6.7-6.7A6.718,6.718,0,0,1,132.468,139.077Zm10.737-19.845a2.406,2.406,0,1,0,1.7.7A2.406,2.406,0,0,0,143.206,119.232Zm9.369,13.141c0-2.776.025-5.527-.131-8.3-.156-3.219-.89-6.075-3.244-8.429s-5.21-3.088-8.429-3.244c-2.776-.156-5.527-.131-8.3-.131s-5.527-.025-8.3.131c-3.219.156-6.075.89-8.429,3.244s-3.088,5.21-3.244,8.429c-.156,2.776-.131,5.527-.131,8.3s-.025,5.527.131,8.3c.156,3.219.89,6.075,3.244,8.429s5.21,3.088,8.429,3.244c2.776.156,5.527.131,8.3.131s5.527.025,8.3-.131c3.219-.156,6.075-.89,8.429-3.244s3.088-5.21,3.244-8.429C152.605,137.9,152.575,135.15,152.575,132.373Zm-4.426,11.859a6.861,6.861,0,0,1-3.822,3.822c-2.645,1.051-8.927.815-11.859.815s-9.219.236-11.864-.81a6.861,6.861,0,0,1-3.822-3.822c-1.046-2.65-.81-8.932-.81-11.864s-.236-9.218.81-11.864a6.391,6.391,0,0,1,1.519-2.3,6.5,6.5,0,0,1,2.3-1.519c2.645-1.046,8.932-.81,11.864-.81s9.219-.236,11.864.81a6.861,6.861,0,0,1,3.822,3.822c1.046,2.645.81,8.932.81,11.864S149.2,141.587,148.149,144.232Z" transform="translate(-112.37 -112.27)" fill="#d6d6d6" stroke="#867874" stroke-width="0"/>
</svg>
