<svg xmlns="http://www.w3.org/2000/svg" width="12.366" height="12.201" viewBox="0 0 12.366 12.201">
  <path id="Path_33" data-name="Path 33" d="M123.372,112H112.994a.988.988,0,0,0-.994.981v10.24a.988.988,0,0,0,.994.981h10.378a.988.988,0,0,0,.994-.981v-10.24A.988.988,0,0,0,123.372,112Zm0,11.225q-10.382,0-10.382,0,0-10.244,0-10.244,10.382,0,10.382,0Q123.374,123.225,123.372,123.225Zm-9.538-6.651h1.835V122.4h-1.835Zm.918-.8a1.049,1.049,0,1,0-1.063-1.049A1.057,1.057,0,0,0,114.751,115.778Zm3.9,3.738c0-.76.147-1.495,1.1-1.495s.954.868.954,1.543V122.4h1.833V119.2c0-1.568-.343-2.774-2.2-2.774a1.935,1.935,0,0,0-1.736.941h-.025v-.8h-1.761V122.4h1.833Z" transform="translate(-112 -112)" fill="#867874" stroke="#000" stroke-width="0"/>
</svg>
