<svg xmlns="http://www.w3.org/2000/svg" width="37.59" height="37.09" viewBox="0 0 37.59 37.09">
  <path id="Path_11" data-name="Path 11" d="M146.568,112H115.021A3,3,0,0,0,112,114.981v31.128a3,3,0,0,0,3.021,2.981h31.547a3,3,0,0,0,3.021-2.981V114.981A3,3,0,0,0,146.568,112Zm0,34.123q-31.561-.007-31.561-.014.007-31.142.014-31.142,31.561.007,31.561.014Q146.576,146.123,146.568,146.123Zm-29-20.219h5.577v17.7h-5.577Zm2.791-2.42a3.19,3.19,0,1,0-3.233-3.19,3.214,3.214,0,0,0,3.233,3.19Zm11.855,11.363c0-2.309.446-4.544,3.345-4.544,2.857,0,2.9,2.638,2.9,4.692v8.609h5.573V133.9c0-4.766-1.043-8.433-6.686-8.433a5.883,5.883,0,0,0-5.277,2.861H132V125.9h-5.352v17.7h5.573Z" transform="translate(-112 -112)" fill="#d6d6d6" stroke="#000" stroke-width="0"/>
</svg>
