<svg xmlns="http://www.w3.org/2000/svg" width="132.458" height="132.766" viewBox="0 0 132.458 132.766">
  <g id="Group_8" data-name="Group 8" transform="translate(-95.596 -405.246)">
    <path id="Path_65" data-name="Path 65" d="M5.161.248A5.276,5.276,0,0,1,3.307-.073,4.359,4.359,0,0,1,1.8-1a4.22,4.22,0,0,1-.99-1.478A5.044,5.044,0,0,1,.451-4.418,5.084,5.084,0,0,1,.816-6.36,4.609,4.609,0,0,1,1.841-7.907,4.487,4.487,0,0,1,3.4-8.9a5.314,5.314,0,0,1,1.942-.353A4.753,4.753,0,0,1,6.7-9.071a5.61,5.61,0,0,1,1.041.413l.394-.349H8.69l.057,3.288H8.188A5.761,5.761,0,0,0,7.047-7.933a2.146,2.146,0,0,0-1.623-.706A1.986,1.986,0,0,0,3.611-7.587,5.839,5.839,0,0,0,2.99-4.634,6.886,6.886,0,0,0,3.2-2.8a3.761,3.761,0,0,0,.555,1.224,2.25,2.25,0,0,0,.869.709,2.671,2.671,0,0,0,1.11.226,2.705,2.705,0,0,0,1.582-.482,4.494,4.494,0,0,0,1.265-1.46l.546.33a5.483,5.483,0,0,1-.622,1A3.754,3.754,0,0,1,7.7-.5,4.19,4.19,0,0,1,6.592.051,4.652,4.652,0,0,1,5.161.248Z" transform="translate(167 415)" fill="#d6d6d6"/>
    <path id="Path_64" data-name="Path 64" d="M8.76-8A4.458,4.458,0,0,1,9.817-6.532a4.728,4.728,0,0,1,.39,1.968,5.334,5.334,0,0,1-.33,1.873,4.333,4.333,0,0,1-.952,1.53A4.659,4.659,0,0,1,7.389-.124a5.4,5.4,0,0,1-2.1.371,5.322,5.322,0,0,1-1.86-.324,4.6,4.6,0,0,1-1.542-.939A4.394,4.394,0,0,1,.838-2.482,4.648,4.648,0,0,1,.451-4.405a5.119,5.119,0,0,1,.378-2A4.606,4.606,0,0,1,1.866-7.947a4.514,4.514,0,0,1,1.552-.968,5.366,5.366,0,0,1,1.914-.34,5.381,5.381,0,0,1,1.895.33A4.666,4.666,0,0,1,8.76-8ZM7.128-1.557a4.8,4.8,0,0,0,.413-1.31A9.722,9.722,0,0,0,7.668-4.52a10.253,10.253,0,0,0-.111-1.523,4.866,4.866,0,0,0-.378-1.319,2.5,2.5,0,0,0-.724-.928,1.778,1.778,0,0,0-1.124-.35,1.891,1.891,0,0,0-1.746,1.09,6.5,6.5,0,0,0-.6,3.08,9.335,9.335,0,0,0,.13,1.6,4.737,4.737,0,0,0,.409,1.31,2.374,2.374,0,0,0,.724.88,1.8,1.8,0,0,0,1.079.315A1.824,1.824,0,0,0,6.411-.686,2.218,2.218,0,0,0,7.128-1.557Z" transform="matrix(0.978, 0.208, -0.208, 0.978, 175.17, 415.932)" fill="#d6d6d6"/>
    <path id="Path_63" data-name="Path 63" d="M10.785-8.512q-.178.019-.508.07a1.331,1.331,0,0,0-.6.248.972.972,0,0,0-.333.587,5.683,5.683,0,0,0-.1,1.222V.051H8.119L2.507-6.913v4.228a5.15,5.15,0,0,0,.1,1.2,1.093,1.093,0,0,0,.34.6A1.575,1.575,0,0,0,3.5-.641a5.865,5.865,0,0,0,.6.146V0H.222V-.5A3.968,3.968,0,0,0,.79-.587a1.5,1.5,0,0,0,.536-.225.946.946,0,0,0,.34-.555,5.845,5.845,0,0,0,.092-1.247V-6.881a1.811,1.811,0,0,0-.1-.6,1.23,1.23,0,0,0-.308-.486,1.672,1.672,0,0,0-.511-.34A3.165,3.165,0,0,0,.184-8.5v-.508H3.575L8.5-2.916V-6.323a4.975,4.975,0,0,0-.108-1.209,1.1,1.1,0,0,0-.343-.587A1.607,1.607,0,0,0,7.5-8.369a5.644,5.644,0,0,0-.584-.143v-.5h3.866Z" transform="matrix(0.891, 0.454, -0.454, 0.891, 183.064, 417.562)" fill="#d6d6d6"/>
    <path id="Path_62" data-name="Path 62" d="M8.811-6.43h-.5a5.534,5.534,0,0,0-.63-1.238q-.434-.66-.8-.711-.2-.025-.5-.044t-.513-.019h-.3v7.065a.933.933,0,0,0,.083.4A.587.587,0,0,0,5.979-.7a2.855,2.855,0,0,0,.454.117q.308.06.524.086V0H1.936V-.5l.517-.054a1.849,1.849,0,0,0,.454-.086.592.592,0,0,0,.33-.273.928.928,0,0,0,.083-.406V-8.442h-.3q-.215,0-.513.019t-.5.044q-.367.051-.8.711A5.534,5.534,0,0,0,.578-6.43h-.5V-9.007H8.811Z" transform="matrix(0.819, 0.574, -0.574, 0.819, 192.059, 422.259)" fill="#d6d6d6"/>
    <path id="Path_61" data-name="Path 61" d="M10.213,0H5.307V-.5a6.121,6.121,0,0,0,.8-.124q.462-.1.462-.244a.778.778,0,0,0-.01-.114.794.794,0,0,0-.054-.171L5.742-3.015H2.632q-.107.26-.237.609t-.224.622a3.276,3.276,0,0,0-.142.514,1.882,1.882,0,0,0-.022.222q0,.2.308.346A3.347,3.347,0,0,0,3.339-.5V0H-.355V-.5A3.413,3.413,0,0,0,.117-.562,1.274,1.274,0,0,0,.533-.711a1.614,1.614,0,0,0,.441-.375,1.984,1.984,0,0,0,.3-.527L2.752-5.186q.74-1.79,1.635-3.948h1.27Q6.9-6.075,7.6-4.3T8.8-1.352a1.465,1.465,0,0,0,.209.346,1.356,1.356,0,0,0,.362.3,1.441,1.441,0,0,0,.413.152,2.966,2.966,0,0,0,.425.063ZM5.48-3.644,4.177-6.9,2.892-3.644Z" transform="translate(198.676 427.485) rotate(45)" fill="#d6d6d6"/>
    <path id="Path_60" data-name="Path 60" d="M5.161.248A5.276,5.276,0,0,1,3.307-.073,4.359,4.359,0,0,1,1.8-1a4.22,4.22,0,0,1-.99-1.478A5.044,5.044,0,0,1,.451-4.418,5.084,5.084,0,0,1,.816-6.36,4.609,4.609,0,0,1,1.841-7.907,4.487,4.487,0,0,1,3.4-8.9a5.314,5.314,0,0,1,1.942-.353A4.753,4.753,0,0,1,6.7-9.071a5.61,5.61,0,0,1,1.041.413l.394-.349H8.69l.057,3.288H8.188A5.761,5.761,0,0,0,7.047-7.933a2.146,2.146,0,0,0-1.623-.706A1.986,1.986,0,0,0,3.611-7.587,5.839,5.839,0,0,0,2.99-4.634,6.886,6.886,0,0,0,3.2-2.8a3.761,3.761,0,0,0,.555,1.224,2.25,2.25,0,0,0,.869.709,2.671,2.671,0,0,0,1.11.226,2.705,2.705,0,0,0,1.582-.482,4.494,4.494,0,0,0,1.265-1.46l.546.33a5.483,5.483,0,0,1-.622,1A3.754,3.754,0,0,1,7.7-.5,4.19,4.19,0,0,1,6.592.051,4.652,4.652,0,0,1,5.161.248Z" transform="translate(204.699 433.942) rotate(50)" fill="#d6d6d6"/>
    <path id="Path_59" data-name="Path 59" d="M8.811-6.43h-.5a5.534,5.534,0,0,0-.63-1.238q-.434-.66-.8-.711-.2-.025-.5-.044t-.513-.019h-.3v7.065a.933.933,0,0,0,.083.4A.587.587,0,0,0,5.979-.7a2.855,2.855,0,0,0,.454.117q.308.06.524.086V0H1.936V-.5l.517-.054a1.849,1.849,0,0,0,.454-.086.592.592,0,0,0,.33-.273.928.928,0,0,0,.083-.406V-8.442h-.3q-.215,0-.513.019t-.5.044q-.367.051-.8.711A5.534,5.534,0,0,0,.578-6.43h-.5V-9.007H8.811Z" transform="matrix(0.574, 0.819, -0.819, 0.574, 210.772, 441.38)" fill="#d6d6d6"/>
    <path id="Path_58" data-name="Path 58" d="M12.816,0H7.935V-.5q.216-.019.53-.063a1.855,1.855,0,0,0,.428-.1.675.675,0,0,0,.336-.26.788.788,0,0,0,.1-.419V-8.062L6.233-.146h-.8q-.057-.209-.282-.832t-.365-1L2.507-8.163v5.478a5.15,5.15,0,0,0,.1,1.2,1.093,1.093,0,0,0,.34.6,1.66,1.66,0,0,0,.568.254,4.063,4.063,0,0,0,.574.14V0H.222V-.5Q.381-.514.74-.581a1.441,1.441,0,0,0,.587-.232.928.928,0,0,0,.343-.6,6.2,6.2,0,0,0,.089-1.2V-7.078a1.936,1.936,0,0,0-.1-.676.957.957,0,0,0-.3-.428,1.293,1.293,0,0,0-.521-.254,3.851,3.851,0,0,0-.54-.076v-.5h4.15l2.22,5.935L8.534-7.889a6.349,6.349,0,0,0,.184-.635,3.54,3.54,0,0,0,.1-.483H12.8v.5a4,4,0,0,0-.425.051,3.286,3.286,0,0,0-.425.1.506.506,0,0,0-.327.26.955.955,0,0,0-.079.394v6.379a.839.839,0,0,0,.079.384.655.655,0,0,0,.327.27,1.913,1.913,0,0,0,.416.108q.289.051.448.07Z" transform="matrix(0.259, 0.966, -0.966, 0.259, 215.075, 450.009)" fill="#d6d6d6"/>
    <path id="Path_57" data-name="Path 57" d="M8.423-6.709H7.941a3.364,3.364,0,0,0-.635-1.037,1.716,1.716,0,0,0-.9-.62,2.806,2.806,0,0,0-.53-.054q-.34-.009-.562-.009H4.012v3.472h.927a2.283,2.283,0,0,0,.635-.083,1.206,1.206,0,0,0,.521-.317,1.6,1.6,0,0,0,.3-.514,3.067,3.067,0,0,0,.194-.641h.482v3.758H6.583a3.209,3.209,0,0,0-.194-.67,1.859,1.859,0,0,0-.3-.555,1.085,1.085,0,0,0-.5-.314,2.3,2.3,0,0,0-.66-.086H4.012v2.6a2.732,2.732,0,0,0,.06.644A.641.641,0,0,0,4.3-.774a.917.917,0,0,0,.435.159,5.8,5.8,0,0,0,.752.038q.222,0,.533-.006a4.87,4.87,0,0,0,.546-.038,3.413,3.413,0,0,0,.5-.1A.734.734,0,0,0,7.408-.9a5.208,5.208,0,0,0,.686-.949,6.906,6.906,0,0,0,.5-.955h.463L8.887,0H.438V-.5Q.616-.508.92-.546a1.942,1.942,0,0,0,.432-.089.617.617,0,0,0,.324-.257.842.842,0,0,0,.083-.4V-7.643a.892.892,0,0,0-.07-.378.643.643,0,0,0-.336-.27,2.282,2.282,0,0,0-.463-.14q-.3-.063-.451-.083v-.5H8.423Z" transform="matrix(0.087, 0.996, -0.996, 0.087, 218.292, 462.561)" fill="#d6d6d6"/>
  </g>
  <g id="Group_10" data-name="Group 10" transform="translate(219.803 540.778) rotate(-179)">
    <path id="Path_74" data-name="Path 74" d="M5.161.248A5.276,5.276,0,0,1,3.307-.073,4.359,4.359,0,0,1,1.8-1a4.22,4.22,0,0,1-.99-1.478A5.044,5.044,0,0,1,.451-4.418,5.084,5.084,0,0,1,.816-6.36,4.609,4.609,0,0,1,1.841-7.907,4.487,4.487,0,0,1,3.4-8.9a5.314,5.314,0,0,1,1.942-.353A4.753,4.753,0,0,1,6.7-9.071a5.61,5.61,0,0,1,1.041.413l.394-.349H8.69l.057,3.288H8.188A5.761,5.761,0,0,0,7.047-7.933a2.146,2.146,0,0,0-1.623-.706A1.986,1.986,0,0,0,3.611-7.587,5.839,5.839,0,0,0,2.99-4.634,6.886,6.886,0,0,0,3.2-2.8a3.761,3.761,0,0,0,.555,1.224,2.25,2.25,0,0,0,.869.709,2.671,2.671,0,0,0,1.11.226,2.705,2.705,0,0,0,1.582-.482,4.494,4.494,0,0,0,1.265-1.46l.546.33a5.483,5.483,0,0,1-.622,1A3.754,3.754,0,0,1,7.7-.5,4.19,4.19,0,0,1,6.592.051,4.652,4.652,0,0,1,5.161.248Z" transform="translate(167 415)" fill="#d6d6d6"/>
    <path id="Path_73" data-name="Path 73" d="M8.76-8A4.458,4.458,0,0,1,9.817-6.532a4.728,4.728,0,0,1,.39,1.968,5.334,5.334,0,0,1-.33,1.873,4.333,4.333,0,0,1-.952,1.53A4.659,4.659,0,0,1,7.389-.124a5.4,5.4,0,0,1-2.1.371,5.322,5.322,0,0,1-1.86-.324,4.6,4.6,0,0,1-1.542-.939A4.394,4.394,0,0,1,.838-2.482,4.648,4.648,0,0,1,.451-4.405a5.119,5.119,0,0,1,.378-2A4.606,4.606,0,0,1,1.866-7.947a4.514,4.514,0,0,1,1.552-.968,5.366,5.366,0,0,1,1.914-.34,5.381,5.381,0,0,1,1.895.33A4.666,4.666,0,0,1,8.76-8ZM7.128-1.557a4.8,4.8,0,0,0,.413-1.31A9.722,9.722,0,0,0,7.668-4.52a10.253,10.253,0,0,0-.111-1.523,4.866,4.866,0,0,0-.378-1.319,2.5,2.5,0,0,0-.724-.928,1.778,1.778,0,0,0-1.124-.35,1.891,1.891,0,0,0-1.746,1.09,6.5,6.5,0,0,0-.6,3.08,9.335,9.335,0,0,0,.13,1.6,4.737,4.737,0,0,0,.409,1.31,2.374,2.374,0,0,0,.724.88,1.8,1.8,0,0,0,1.079.315A1.824,1.824,0,0,0,6.411-.686,2.218,2.218,0,0,0,7.128-1.557Z" transform="matrix(0.978, 0.208, -0.208, 0.978, 175.17, 415.932)" fill="#d6d6d6"/>
    <path id="Path_72" data-name="Path 72" d="M10.785-8.512q-.178.019-.508.07a1.331,1.331,0,0,0-.6.248.972.972,0,0,0-.333.587,5.683,5.683,0,0,0-.1,1.222V.051H8.119L2.507-6.913v4.228a5.15,5.15,0,0,0,.1,1.2,1.093,1.093,0,0,0,.34.6A1.575,1.575,0,0,0,3.5-.641a5.865,5.865,0,0,0,.6.146V0H.222V-.5A3.968,3.968,0,0,0,.79-.587a1.5,1.5,0,0,0,.536-.225.946.946,0,0,0,.34-.555,5.845,5.845,0,0,0,.092-1.247V-6.881a1.811,1.811,0,0,0-.1-.6,1.23,1.23,0,0,0-.308-.486,1.672,1.672,0,0,0-.511-.34A3.165,3.165,0,0,0,.184-8.5v-.508H3.575L8.5-2.916V-6.323a4.975,4.975,0,0,0-.108-1.209,1.1,1.1,0,0,0-.343-.587A1.607,1.607,0,0,0,7.5-8.369a5.644,5.644,0,0,0-.584-.143v-.5h3.866Z" transform="matrix(0.891, 0.454, -0.454, 0.891, 183.064, 417.562)" fill="#d6d6d6"/>
    <path id="Path_71" data-name="Path 71" d="M8.811-6.43h-.5a5.534,5.534,0,0,0-.63-1.238q-.434-.66-.8-.711-.2-.025-.5-.044t-.513-.019h-.3v7.065a.933.933,0,0,0,.083.4A.587.587,0,0,0,5.979-.7a2.855,2.855,0,0,0,.454.117q.308.06.524.086V0H1.936V-.5l.517-.054a1.849,1.849,0,0,0,.454-.086.592.592,0,0,0,.33-.273.928.928,0,0,0,.083-.406V-8.442h-.3q-.215,0-.513.019t-.5.044q-.367.051-.8.711A5.534,5.534,0,0,0,.578-6.43h-.5V-9.007H8.811Z" transform="matrix(0.819, 0.574, -0.574, 0.819, 192.059, 422.259)" fill="#d6d6d6"/>
    <path id="Path_70" data-name="Path 70" d="M10.213,0H5.307V-.5a6.121,6.121,0,0,0,.8-.124q.462-.1.462-.244a.778.778,0,0,0-.01-.114.794.794,0,0,0-.054-.171L5.742-3.015H2.632q-.107.26-.237.609t-.224.622a3.276,3.276,0,0,0-.142.514,1.882,1.882,0,0,0-.022.222q0,.2.308.346A3.347,3.347,0,0,0,3.339-.5V0H-.355V-.5A3.413,3.413,0,0,0,.117-.562,1.274,1.274,0,0,0,.533-.711a1.614,1.614,0,0,0,.441-.375,1.984,1.984,0,0,0,.3-.527L2.752-5.186q.74-1.79,1.635-3.948h1.27Q6.9-6.075,7.6-4.3T8.8-1.352a1.465,1.465,0,0,0,.209.346,1.356,1.356,0,0,0,.362.3,1.441,1.441,0,0,0,.413.152,2.966,2.966,0,0,0,.425.063ZM5.48-3.644,4.177-6.9,2.892-3.644Z" transform="translate(198.676 427.485) rotate(45)" fill="#d6d6d6"/>
    <path id="Path_69" data-name="Path 69" d="M5.161.248A5.276,5.276,0,0,1,3.307-.073,4.359,4.359,0,0,1,1.8-1a4.22,4.22,0,0,1-.99-1.478A5.044,5.044,0,0,1,.451-4.418,5.084,5.084,0,0,1,.816-6.36,4.609,4.609,0,0,1,1.841-7.907,4.487,4.487,0,0,1,3.4-8.9a5.314,5.314,0,0,1,1.942-.353A4.753,4.753,0,0,1,6.7-9.071a5.61,5.61,0,0,1,1.041.413l.394-.349H8.69l.057,3.288H8.188A5.761,5.761,0,0,0,7.047-7.933a2.146,2.146,0,0,0-1.623-.706A1.986,1.986,0,0,0,3.611-7.587,5.839,5.839,0,0,0,2.99-4.634,6.886,6.886,0,0,0,3.2-2.8a3.761,3.761,0,0,0,.555,1.224,2.25,2.25,0,0,0,.869.709,2.671,2.671,0,0,0,1.11.226,2.705,2.705,0,0,0,1.582-.482,4.494,4.494,0,0,0,1.265-1.46l.546.33a5.483,5.483,0,0,1-.622,1A3.754,3.754,0,0,1,7.7-.5,4.19,4.19,0,0,1,6.592.051,4.652,4.652,0,0,1,5.161.248Z" transform="translate(204.699 433.942) rotate(50)" fill="#d6d6d6"/>
    <path id="Path_68" data-name="Path 68" d="M8.811-6.43h-.5a5.534,5.534,0,0,0-.63-1.238q-.434-.66-.8-.711-.2-.025-.5-.044t-.513-.019h-.3v7.065a.933.933,0,0,0,.083.4A.587.587,0,0,0,5.979-.7a2.855,2.855,0,0,0,.454.117q.308.06.524.086V0H1.936V-.5l.517-.054a1.849,1.849,0,0,0,.454-.086.592.592,0,0,0,.33-.273.928.928,0,0,0,.083-.406V-8.442h-.3q-.215,0-.513.019t-.5.044q-.367.051-.8.711A5.534,5.534,0,0,0,.578-6.43h-.5V-9.007H8.811Z" transform="matrix(0.574, 0.819, -0.819, 0.574, 210.772, 441.38)" fill="#d6d6d6"/>
    <path id="Path_67" data-name="Path 67" d="M12.816,0H7.935V-.5q.216-.019.53-.063a1.855,1.855,0,0,0,.428-.1.675.675,0,0,0,.336-.26.788.788,0,0,0,.1-.419V-8.062L6.233-.146h-.8q-.057-.209-.282-.832t-.365-1L2.507-8.163v5.478a5.15,5.15,0,0,0,.1,1.2,1.093,1.093,0,0,0,.34.6,1.66,1.66,0,0,0,.568.254,4.063,4.063,0,0,0,.574.14V0H.222V-.5Q.381-.514.74-.581a1.441,1.441,0,0,0,.587-.232.928.928,0,0,0,.343-.6,6.2,6.2,0,0,0,.089-1.2V-7.078a1.936,1.936,0,0,0-.1-.676.957.957,0,0,0-.3-.428,1.293,1.293,0,0,0-.521-.254,3.851,3.851,0,0,0-.54-.076v-.5h4.15l2.22,5.935L8.534-7.889a6.349,6.349,0,0,0,.184-.635,3.54,3.54,0,0,0,.1-.483H12.8v.5a4,4,0,0,0-.425.051,3.286,3.286,0,0,0-.425.1.506.506,0,0,0-.327.26.955.955,0,0,0-.079.394v6.379a.839.839,0,0,0,.079.384.655.655,0,0,0,.327.27,1.913,1.913,0,0,0,.416.108q.289.051.448.07Z" transform="matrix(0.259, 0.966, -0.966, 0.259, 215.075, 450.009)" fill="#d6d6d6"/>
    <path id="Path_66" data-name="Path 66" d="M8.423-6.709H7.941a3.364,3.364,0,0,0-.635-1.037,1.716,1.716,0,0,0-.9-.62,2.806,2.806,0,0,0-.53-.054q-.34-.009-.562-.009H4.012v3.472h.927a2.283,2.283,0,0,0,.635-.083,1.206,1.206,0,0,0,.521-.317,1.6,1.6,0,0,0,.3-.514,3.067,3.067,0,0,0,.194-.641h.482v3.758H6.583a3.209,3.209,0,0,0-.194-.67,1.859,1.859,0,0,0-.3-.555,1.085,1.085,0,0,0-.5-.314,2.3,2.3,0,0,0-.66-.086H4.012v2.6a2.732,2.732,0,0,0,.06.644A.641.641,0,0,0,4.3-.774a.917.917,0,0,0,.435.159,5.8,5.8,0,0,0,.752.038q.222,0,.533-.006a4.87,4.87,0,0,0,.546-.038,3.413,3.413,0,0,0,.5-.1A.734.734,0,0,0,7.408-.9a5.208,5.208,0,0,0,.686-.949,6.906,6.906,0,0,0,.5-.955h.463L8.887,0H.438V-.5Q.616-.508.92-.546a1.942,1.942,0,0,0,.432-.089.617.617,0,0,0,.324-.257.842.842,0,0,0,.083-.4V-7.643a.892.892,0,0,0-.07-.378.643.643,0,0,0-.336-.27,2.282,2.282,0,0,0-.463-.14q-.3-.063-.451-.083v-.5H8.423Z" transform="matrix(0.087, 0.996, -0.996, 0.087, 218.292, 462.561)" fill="#d6d6d6"/>
  </g>
  <g id="Group_7" data-name="Group 7" transform="translate(534.341 -103.47) rotate(89)">
    <path id="Path_83" data-name="Path 83" d="M5.161.248A5.276,5.276,0,0,1,3.307-.073,4.359,4.359,0,0,1,1.8-1a4.22,4.22,0,0,1-.99-1.478A5.044,5.044,0,0,1,.451-4.418,5.084,5.084,0,0,1,.816-6.36,4.609,4.609,0,0,1,1.841-7.907,4.487,4.487,0,0,1,3.4-8.9a5.314,5.314,0,0,1,1.942-.353A4.753,4.753,0,0,1,6.7-9.071a5.61,5.61,0,0,1,1.041.413l.394-.349H8.69l.057,3.288H8.188A5.761,5.761,0,0,0,7.047-7.933a2.146,2.146,0,0,0-1.623-.706A1.986,1.986,0,0,0,3.611-7.587,5.839,5.839,0,0,0,2.99-4.634,6.886,6.886,0,0,0,3.2-2.8a3.761,3.761,0,0,0,.555,1.224,2.25,2.25,0,0,0,.869.709,2.671,2.671,0,0,0,1.11.226,2.705,2.705,0,0,0,1.582-.482,4.494,4.494,0,0,0,1.265-1.46l.546.33a5.483,5.483,0,0,1-.622,1A3.754,3.754,0,0,1,7.7-.5,4.19,4.19,0,0,1,6.592.051,4.652,4.652,0,0,1,5.161.248Z" transform="translate(167 415)" fill="#d6d6d6"/>
    <path id="Path_82" data-name="Path 82" d="M8.76-8A4.458,4.458,0,0,1,9.817-6.532a4.728,4.728,0,0,1,.39,1.968,5.334,5.334,0,0,1-.33,1.873,4.333,4.333,0,0,1-.952,1.53A4.659,4.659,0,0,1,7.389-.124a5.4,5.4,0,0,1-2.1.371,5.322,5.322,0,0,1-1.86-.324,4.6,4.6,0,0,1-1.542-.939A4.394,4.394,0,0,1,.838-2.482,4.648,4.648,0,0,1,.451-4.405a5.119,5.119,0,0,1,.378-2A4.606,4.606,0,0,1,1.866-7.947a4.514,4.514,0,0,1,1.552-.968,5.366,5.366,0,0,1,1.914-.34,5.381,5.381,0,0,1,1.895.33A4.666,4.666,0,0,1,8.76-8ZM7.128-1.557a4.8,4.8,0,0,0,.413-1.31A9.722,9.722,0,0,0,7.668-4.52a10.253,10.253,0,0,0-.111-1.523,4.866,4.866,0,0,0-.378-1.319,2.5,2.5,0,0,0-.724-.928,1.778,1.778,0,0,0-1.124-.35,1.891,1.891,0,0,0-1.746,1.09,6.5,6.5,0,0,0-.6,3.08,9.335,9.335,0,0,0,.13,1.6,4.737,4.737,0,0,0,.409,1.31,2.374,2.374,0,0,0,.724.88,1.8,1.8,0,0,0,1.079.315A1.824,1.824,0,0,0,6.411-.686,2.218,2.218,0,0,0,7.128-1.557Z" transform="matrix(0.978, 0.208, -0.208, 0.978, 175.17, 415.932)" fill="#d6d6d6"/>
    <path id="Path_81" data-name="Path 81" d="M10.785-8.512q-.178.019-.508.07a1.331,1.331,0,0,0-.6.248.972.972,0,0,0-.333.587,5.683,5.683,0,0,0-.1,1.222V.051H8.119L2.507-6.913v4.228a5.15,5.15,0,0,0,.1,1.2,1.093,1.093,0,0,0,.34.6A1.575,1.575,0,0,0,3.5-.641a5.865,5.865,0,0,0,.6.146V0H.222V-.5A3.968,3.968,0,0,0,.79-.587a1.5,1.5,0,0,0,.536-.225.946.946,0,0,0,.34-.555,5.845,5.845,0,0,0,.092-1.247V-6.881a1.811,1.811,0,0,0-.1-.6,1.23,1.23,0,0,0-.308-.486,1.672,1.672,0,0,0-.511-.34A3.165,3.165,0,0,0,.184-8.5v-.508H3.575L8.5-2.916V-6.323a4.975,4.975,0,0,0-.108-1.209,1.1,1.1,0,0,0-.343-.587A1.607,1.607,0,0,0,7.5-8.369a5.644,5.644,0,0,0-.584-.143v-.5h3.866Z" transform="matrix(0.891, 0.454, -0.454, 0.891, 183.064, 417.562)" fill="#d6d6d6"/>
    <path id="Path_80" data-name="Path 80" d="M8.811-6.43h-.5a5.534,5.534,0,0,0-.63-1.238q-.434-.66-.8-.711-.2-.025-.5-.044t-.513-.019h-.3v7.065a.933.933,0,0,0,.083.4A.587.587,0,0,0,5.979-.7a2.855,2.855,0,0,0,.454.117q.308.06.524.086V0H1.936V-.5l.517-.054a1.849,1.849,0,0,0,.454-.086.592.592,0,0,0,.33-.273.928.928,0,0,0,.083-.406V-8.442h-.3q-.215,0-.513.019t-.5.044q-.367.051-.8.711A5.534,5.534,0,0,0,.578-6.43h-.5V-9.007H8.811Z" transform="matrix(0.819, 0.574, -0.574, 0.819, 192.059, 422.259)" fill="#d6d6d6"/>
    <path id="Path_79" data-name="Path 79" d="M10.213,0H5.307V-.5a6.121,6.121,0,0,0,.8-.124q.462-.1.462-.244a.778.778,0,0,0-.01-.114.794.794,0,0,0-.054-.171L5.742-3.015H2.632q-.107.26-.237.609t-.224.622a3.276,3.276,0,0,0-.142.514,1.882,1.882,0,0,0-.022.222q0,.2.308.346A3.347,3.347,0,0,0,3.339-.5V0H-.355V-.5A3.413,3.413,0,0,0,.117-.562,1.274,1.274,0,0,0,.533-.711a1.614,1.614,0,0,0,.441-.375,1.984,1.984,0,0,0,.3-.527L2.752-5.186q.74-1.79,1.635-3.948h1.27Q6.9-6.075,7.6-4.3T8.8-1.352a1.465,1.465,0,0,0,.209.346,1.356,1.356,0,0,0,.362.3,1.441,1.441,0,0,0,.413.152,2.966,2.966,0,0,0,.425.063ZM5.48-3.644,4.177-6.9,2.892-3.644Z" transform="translate(198.676 427.485) rotate(45)" fill="#d6d6d6"/>
    <path id="Path_78" data-name="Path 78" d="M5.161.248A5.276,5.276,0,0,1,3.307-.073,4.359,4.359,0,0,1,1.8-1a4.22,4.22,0,0,1-.99-1.478A5.044,5.044,0,0,1,.451-4.418,5.084,5.084,0,0,1,.816-6.36,4.609,4.609,0,0,1,1.841-7.907,4.487,4.487,0,0,1,3.4-8.9a5.314,5.314,0,0,1,1.942-.353A4.753,4.753,0,0,1,6.7-9.071a5.61,5.61,0,0,1,1.041.413l.394-.349H8.69l.057,3.288H8.188A5.761,5.761,0,0,0,7.047-7.933a2.146,2.146,0,0,0-1.623-.706A1.986,1.986,0,0,0,3.611-7.587,5.839,5.839,0,0,0,2.99-4.634,6.886,6.886,0,0,0,3.2-2.8a3.761,3.761,0,0,0,.555,1.224,2.25,2.25,0,0,0,.869.709,2.671,2.671,0,0,0,1.11.226,2.705,2.705,0,0,0,1.582-.482,4.494,4.494,0,0,0,1.265-1.46l.546.33a5.483,5.483,0,0,1-.622,1A3.754,3.754,0,0,1,7.7-.5,4.19,4.19,0,0,1,6.592.051,4.652,4.652,0,0,1,5.161.248Z" transform="translate(204.699 433.942) rotate(50)" fill="#d6d6d6"/>
    <path id="Path_77" data-name="Path 77" d="M8.811-6.43h-.5a5.534,5.534,0,0,0-.63-1.238q-.434-.66-.8-.711-.2-.025-.5-.044t-.513-.019h-.3v7.065a.933.933,0,0,0,.083.4A.587.587,0,0,0,5.979-.7a2.855,2.855,0,0,0,.454.117q.308.06.524.086V0H1.936V-.5l.517-.054a1.849,1.849,0,0,0,.454-.086.592.592,0,0,0,.33-.273.928.928,0,0,0,.083-.406V-8.442h-.3q-.215,0-.513.019t-.5.044q-.367.051-.8.711A5.534,5.534,0,0,0,.578-6.43h-.5V-9.007H8.811Z" transform="matrix(0.574, 0.819, -0.819, 0.574, 210.772, 441.38)" fill="#d6d6d6"/>
    <path id="Path_76" data-name="Path 76" d="M12.816,0H7.935V-.5q.216-.019.53-.063a1.855,1.855,0,0,0,.428-.1.675.675,0,0,0,.336-.26.788.788,0,0,0,.1-.419V-8.062L6.233-.146h-.8q-.057-.209-.282-.832t-.365-1L2.507-8.163v5.478a5.15,5.15,0,0,0,.1,1.2,1.093,1.093,0,0,0,.34.6,1.66,1.66,0,0,0,.568.254,4.063,4.063,0,0,0,.574.14V0H.222V-.5Q.381-.514.74-.581a1.441,1.441,0,0,0,.587-.232.928.928,0,0,0,.343-.6,6.2,6.2,0,0,0,.089-1.2V-7.078a1.936,1.936,0,0,0-.1-.676.957.957,0,0,0-.3-.428,1.293,1.293,0,0,0-.521-.254,3.851,3.851,0,0,0-.54-.076v-.5h4.15l2.22,5.935L8.534-7.889a6.349,6.349,0,0,0,.184-.635,3.54,3.54,0,0,0,.1-.483H12.8v.5a4,4,0,0,0-.425.051,3.286,3.286,0,0,0-.425.1.506.506,0,0,0-.327.26.955.955,0,0,0-.079.394v6.379a.839.839,0,0,0,.079.384.655.655,0,0,0,.327.27,1.913,1.913,0,0,0,.416.108q.289.051.448.07Z" transform="matrix(0.259, 0.966, -0.966, 0.259, 215.075, 450.009)" fill="#d6d6d6"/>
    <path id="Path_75" data-name="Path 75" d="M8.423-6.709H7.941a3.364,3.364,0,0,0-.635-1.037,1.716,1.716,0,0,0-.9-.62,2.806,2.806,0,0,0-.53-.054q-.34-.009-.562-.009H4.012v3.472h.927a2.283,2.283,0,0,0,.635-.083,1.206,1.206,0,0,0,.521-.317,1.6,1.6,0,0,0,.3-.514,3.067,3.067,0,0,0,.194-.641h.482v3.758H6.583a3.209,3.209,0,0,0-.194-.67,1.859,1.859,0,0,0-.3-.555,1.085,1.085,0,0,0-.5-.314,2.3,2.3,0,0,0-.66-.086H4.012v2.6a2.732,2.732,0,0,0,.06.644A.641.641,0,0,0,4.3-.774a.917.917,0,0,0,.435.159,5.8,5.8,0,0,0,.752.038q.222,0,.533-.006a4.87,4.87,0,0,0,.546-.038,3.413,3.413,0,0,0,.5-.1A.734.734,0,0,0,7.408-.9a5.208,5.208,0,0,0,.686-.949,6.906,6.906,0,0,0,.5-.955h.463L8.887,0H.438V-.5Q.616-.508.92-.546a1.942,1.942,0,0,0,.432-.089.617.617,0,0,0,.324-.257.842.842,0,0,0,.083-.4V-7.643a.892.892,0,0,0-.07-.378.643.643,0,0,0-.336-.27,2.282,2.282,0,0,0-.463-.14q-.3-.063-.451-.083v-.5H8.423Z" transform="matrix(0.087, 0.996, -0.996, 0.087, 218.292, 462.561)" fill="#d6d6d6"/>
  </g>
  <g id="Group_9" data-name="Group 9" transform="translate(-404.771 228.055) rotate(-90)">
    <path id="Path_55" data-name="Path 55" d="M5.161.248A5.276,5.276,0,0,1,3.307-.073,4.359,4.359,0,0,1,1.8-1a4.22,4.22,0,0,1-.99-1.478A5.044,5.044,0,0,1,.451-4.418,5.084,5.084,0,0,1,.816-6.36,4.609,4.609,0,0,1,1.841-7.907,4.487,4.487,0,0,1,3.4-8.9a5.314,5.314,0,0,1,1.942-.353A4.753,4.753,0,0,1,6.7-9.071a5.61,5.61,0,0,1,1.041.413l.394-.349H8.69l.057,3.288H8.188A5.761,5.761,0,0,0,7.047-7.933a2.146,2.146,0,0,0-1.623-.706A1.986,1.986,0,0,0,3.611-7.587,5.839,5.839,0,0,0,2.99-4.634,6.886,6.886,0,0,0,3.2-2.8a3.761,3.761,0,0,0,.555,1.224,2.25,2.25,0,0,0,.869.709,2.671,2.671,0,0,0,1.11.226,2.705,2.705,0,0,0,1.582-.482,4.494,4.494,0,0,0,1.265-1.46l.546.33a5.483,5.483,0,0,1-.622,1A3.754,3.754,0,0,1,7.7-.5,4.19,4.19,0,0,1,6.592.051,4.652,4.652,0,0,1,5.161.248Z" transform="translate(167 415)" fill="#d6d6d6"/>
    <path id="Path_54" data-name="Path 54" d="M8.76-8A4.458,4.458,0,0,1,9.817-6.532a4.728,4.728,0,0,1,.39,1.968,5.334,5.334,0,0,1-.33,1.873,4.333,4.333,0,0,1-.952,1.53A4.659,4.659,0,0,1,7.389-.124a5.4,5.4,0,0,1-2.1.371,5.322,5.322,0,0,1-1.86-.324,4.6,4.6,0,0,1-1.542-.939A4.394,4.394,0,0,1,.838-2.482,4.648,4.648,0,0,1,.451-4.405a5.119,5.119,0,0,1,.378-2A4.606,4.606,0,0,1,1.866-7.947a4.514,4.514,0,0,1,1.552-.968,5.366,5.366,0,0,1,1.914-.34,5.381,5.381,0,0,1,1.895.33A4.666,4.666,0,0,1,8.76-8ZM7.128-1.557a4.8,4.8,0,0,0,.413-1.31A9.722,9.722,0,0,0,7.668-4.52a10.253,10.253,0,0,0-.111-1.523,4.866,4.866,0,0,0-.378-1.319,2.5,2.5,0,0,0-.724-.928,1.778,1.778,0,0,0-1.124-.35,1.891,1.891,0,0,0-1.746,1.09,6.5,6.5,0,0,0-.6,3.08,9.335,9.335,0,0,0,.13,1.6,4.737,4.737,0,0,0,.409,1.31,2.374,2.374,0,0,0,.724.88,1.8,1.8,0,0,0,1.079.315A1.824,1.824,0,0,0,6.411-.686,2.218,2.218,0,0,0,7.128-1.557Z" transform="matrix(0.978, 0.208, -0.208, 0.978, 175.17, 415.932)" fill="#d6d6d6"/>
    <path id="Path_53" data-name="Path 53" d="M10.785-8.512q-.178.019-.508.07a1.331,1.331,0,0,0-.6.248.972.972,0,0,0-.333.587,5.683,5.683,0,0,0-.1,1.222V.051H8.119L2.507-6.913v4.228a5.15,5.15,0,0,0,.1,1.2,1.093,1.093,0,0,0,.34.6A1.575,1.575,0,0,0,3.5-.641a5.865,5.865,0,0,0,.6.146V0H.222V-.5A3.968,3.968,0,0,0,.79-.587a1.5,1.5,0,0,0,.536-.225.946.946,0,0,0,.34-.555,5.845,5.845,0,0,0,.092-1.247V-6.881a1.811,1.811,0,0,0-.1-.6,1.23,1.23,0,0,0-.308-.486,1.672,1.672,0,0,0-.511-.34A3.165,3.165,0,0,0,.184-8.5v-.508H3.575L8.5-2.916V-6.323a4.975,4.975,0,0,0-.108-1.209,1.1,1.1,0,0,0-.343-.587A1.607,1.607,0,0,0,7.5-8.369a5.644,5.644,0,0,0-.584-.143v-.5h3.866Z" transform="matrix(0.891, 0.454, -0.454, 0.891, 183.064, 417.562)" fill="#d6d6d6"/>
    <path id="Path_52" data-name="Path 52" d="M8.811-6.43h-.5a5.534,5.534,0,0,0-.63-1.238q-.434-.66-.8-.711-.2-.025-.5-.044t-.513-.019h-.3v7.065a.933.933,0,0,0,.083.4A.587.587,0,0,0,5.979-.7a2.855,2.855,0,0,0,.454.117q.308.06.524.086V0H1.936V-.5l.517-.054a1.849,1.849,0,0,0,.454-.086.592.592,0,0,0,.33-.273.928.928,0,0,0,.083-.406V-8.442h-.3q-.215,0-.513.019t-.5.044q-.367.051-.8.711A5.534,5.534,0,0,0,.578-6.43h-.5V-9.007H8.811Z" transform="matrix(0.819, 0.574, -0.574, 0.819, 192.059, 422.259)" fill="#d6d6d6"/>
    <path id="Path_51" data-name="Path 51" d="M10.213,0H5.307V-.5a6.121,6.121,0,0,0,.8-.124q.462-.1.462-.244a.778.778,0,0,0-.01-.114.794.794,0,0,0-.054-.171L5.742-3.015H2.632q-.107.26-.237.609t-.224.622a3.276,3.276,0,0,0-.142.514,1.882,1.882,0,0,0-.022.222q0,.2.308.346A3.347,3.347,0,0,0,3.339-.5V0H-.355V-.5A3.413,3.413,0,0,0,.117-.562,1.274,1.274,0,0,0,.533-.711a1.614,1.614,0,0,0,.441-.375,1.984,1.984,0,0,0,.3-.527L2.752-5.186q.74-1.79,1.635-3.948h1.27Q6.9-6.075,7.6-4.3T8.8-1.352a1.465,1.465,0,0,0,.209.346,1.356,1.356,0,0,0,.362.3,1.441,1.441,0,0,0,.413.152,2.966,2.966,0,0,0,.425.063ZM5.48-3.644,4.177-6.9,2.892-3.644Z" transform="translate(198.676 427.485) rotate(45)" fill="#d6d6d6"/>
    <path id="Path_50" data-name="Path 50" d="M5.161.248A5.276,5.276,0,0,1,3.307-.073,4.359,4.359,0,0,1,1.8-1a4.22,4.22,0,0,1-.99-1.478A5.044,5.044,0,0,1,.451-4.418,5.084,5.084,0,0,1,.816-6.36,4.609,4.609,0,0,1,1.841-7.907,4.487,4.487,0,0,1,3.4-8.9a5.314,5.314,0,0,1,1.942-.353A4.753,4.753,0,0,1,6.7-9.071a5.61,5.61,0,0,1,1.041.413l.394-.349H8.69l.057,3.288H8.188A5.761,5.761,0,0,0,7.047-7.933a2.146,2.146,0,0,0-1.623-.706A1.986,1.986,0,0,0,3.611-7.587,5.839,5.839,0,0,0,2.99-4.634,6.886,6.886,0,0,0,3.2-2.8a3.761,3.761,0,0,0,.555,1.224,2.25,2.25,0,0,0,.869.709,2.671,2.671,0,0,0,1.11.226,2.705,2.705,0,0,0,1.582-.482,4.494,4.494,0,0,0,1.265-1.46l.546.33a5.483,5.483,0,0,1-.622,1A3.754,3.754,0,0,1,7.7-.5,4.19,4.19,0,0,1,6.592.051,4.652,4.652,0,0,1,5.161.248Z" transform="translate(204.699 433.942) rotate(50)" fill="#d6d6d6"/>
    <path id="Path_49" data-name="Path 49" d="M8.811-6.43h-.5a5.534,5.534,0,0,0-.63-1.238q-.434-.66-.8-.711-.2-.025-.5-.044t-.513-.019h-.3v7.065a.933.933,0,0,0,.083.4A.587.587,0,0,0,5.979-.7a2.855,2.855,0,0,0,.454.117q.308.06.524.086V0H1.936V-.5l.517-.054a1.849,1.849,0,0,0,.454-.086.592.592,0,0,0,.33-.273.928.928,0,0,0,.083-.406V-8.442h-.3q-.215,0-.513.019t-.5.044q-.367.051-.8.711A5.534,5.534,0,0,0,.578-6.43h-.5V-9.007H8.811Z" transform="matrix(0.574, 0.819, -0.819, 0.574, 210.772, 441.38)" fill="#d6d6d6"/>
    <path id="Path_48" data-name="Path 48" d="M12.816,0H7.935V-.5q.216-.019.53-.063a1.855,1.855,0,0,0,.428-.1.675.675,0,0,0,.336-.26.788.788,0,0,0,.1-.419V-8.062L6.233-.146h-.8q-.057-.209-.282-.832t-.365-1L2.507-8.163v5.478a5.15,5.15,0,0,0,.1,1.2,1.093,1.093,0,0,0,.34.6,1.66,1.66,0,0,0,.568.254,4.063,4.063,0,0,0,.574.14V0H.222V-.5Q.381-.514.74-.581a1.441,1.441,0,0,0,.587-.232.928.928,0,0,0,.343-.6,6.2,6.2,0,0,0,.089-1.2V-7.078a1.936,1.936,0,0,0-.1-.676.957.957,0,0,0-.3-.428,1.293,1.293,0,0,0-.521-.254,3.851,3.851,0,0,0-.54-.076v-.5h4.15l2.22,5.935L8.534-7.889a6.349,6.349,0,0,0,.184-.635,3.54,3.54,0,0,0,.1-.483H12.8v.5a4,4,0,0,0-.425.051,3.286,3.286,0,0,0-.425.1.506.506,0,0,0-.327.26.955.955,0,0,0-.079.394v6.379a.839.839,0,0,0,.079.384.655.655,0,0,0,.327.27,1.913,1.913,0,0,0,.416.108q.289.051.448.07Z" transform="matrix(0.259, 0.966, -0.966, 0.259, 215.075, 450.009)" fill="#d6d6d6"/>
    <path id="Path_56" data-name="Path 56" d="M8.423-6.709H7.941a3.364,3.364,0,0,0-.635-1.037,1.716,1.716,0,0,0-.9-.62,2.806,2.806,0,0,0-.53-.054q-.34-.009-.562-.009H4.012v3.472h.927a2.283,2.283,0,0,0,.635-.083,1.206,1.206,0,0,0,.521-.317,1.6,1.6,0,0,0,.3-.514,3.067,3.067,0,0,0,.194-.641h.482v3.758H6.583a3.209,3.209,0,0,0-.194-.67,1.859,1.859,0,0,0-.3-.555,1.085,1.085,0,0,0-.5-.314,2.3,2.3,0,0,0-.66-.086H4.012v2.6a2.732,2.732,0,0,0,.06.644A.641.641,0,0,0,4.3-.774a.917.917,0,0,0,.435.159,5.8,5.8,0,0,0,.752.038q.222,0,.533-.006a4.87,4.87,0,0,0,.546-.038,3.413,3.413,0,0,0,.5-.1A.734.734,0,0,0,7.408-.9a5.208,5.208,0,0,0,.686-.949,6.906,6.906,0,0,0,.5-.955h.463L8.887,0H.438V-.5Q.616-.508.92-.546a1.942,1.942,0,0,0,.432-.089.617.617,0,0,0,.324-.257.842.842,0,0,0,.083-.4V-7.643a.892.892,0,0,0-.07-.378.643.643,0,0,0-.336-.27,2.282,2.282,0,0,0-.463-.14q-.3-.063-.451-.083v-.5H8.423Z" transform="matrix(0.087, 0.996, -0.996, 0.087, 218.292, 462.561)" fill="#d6d6d6"/>
  </g>
</svg>
