<svg xmlns="http://www.w3.org/2000/svg" width="2162.878" height="1903.332" viewBox="0 0 2162.878 1903.332">
  <path id="Path_85" data-name="Path 85" d="M2253.249,160H133.629A21.692,21.692,0,0,0,112,181.627V354.658a21.693,21.693,0,0,0,21.629,21.629h2119.62a21.693,21.693,0,0,0,21.629-21.629V181.627A21.692,21.692,0,0,0,2253.249,160Zm0,1687.043H133.629A21.692,21.692,0,0,0,112,1868.673V2041.7a21.692,21.692,0,0,0,21.629,21.628h2119.62a21.692,21.692,0,0,0,21.629-21.628V1868.673A21.692,21.692,0,0,0,2253.249,1847.043Zm0-843.521H133.629A21.693,21.693,0,0,0,112,1025.151v173.031a21.692,21.692,0,0,0,21.629,21.627h2119.62a21.692,21.692,0,0,0,21.629-21.627V1025.151A21.693,21.693,0,0,0,2253.249,1003.522Z" transform="translate(-112 -160)" fill="#d6d6d6" stroke="#000" stroke-width="0"/>
</svg>
