<svg xmlns="http://www.w3.org/2000/svg" width="21.2" height="18.656" viewBox="0 0 21.2 18.656">
  <path id="Path_27" data-name="Path 27" d="M132.988,160H112.212a.213.213,0,0,0-.212.212v1.7a.213.213,0,0,0,.212.212h20.776a.213.213,0,0,0,.212-.212v-1.7A.213.213,0,0,0,132.988,160Zm0,16.536H112.212a.213.213,0,0,0-.212.212v1.7a.213.213,0,0,0,.212.212h20.776a.213.213,0,0,0,.212-.212v-1.7A.213.213,0,0,0,132.988,176.536Zm0-8.268H112.212a.213.213,0,0,0-.212.212v1.7a.213.213,0,0,0,.212.212h20.776a.213.213,0,0,0,.212-.212v-1.7A.213.213,0,0,0,132.988,168.268Z" transform="translate(-112 -160)" fill="#867874" stroke="#000" stroke-width="0"/>
</svg>
