<svg xmlns="http://www.w3.org/2000/svg" width="37.593" height="36.67" viewBox="0 0 37.593 36.67">
  <path id="Path_5" data-name="Path 5" d="M4.429,1.17a4.168,4.168,0,0,1,6.132.374l4.217,5.285a3.922,3.922,0,0,1,.74,3.424l-1.285,5.019a1.528,1.528,0,0,0,.418,1.474l5.773,5.631a1.62,1.62,0,0,0,1.513.408l5.143-1.254a4.18,4.18,0,0,1,3.51.722l5.418,4.112a3.935,3.935,0,0,1,.383,5.984l-2.429,2.37a6.638,6.638,0,0,1-6.76,1.609A43.944,43.944,0,0,1,10.733,26.2,42.581,42.581,0,0,1,.348,10.134,6.264,6.264,0,0,1,2,3.54Z" transform="translate(0 -0.001)" fill="#d6d6d6" stroke="#000" stroke-width="0" fill-rule="evenodd"/>
</svg>
