<svg xmlns="http://www.w3.org/2000/svg" width="27.459" height="26.785" viewBox="0 0 27.459 26.785">
  <path id="Path_21" data-name="Path 21" d="M3.235.855a3.044,3.044,0,0,1,4.479.273l3.081,3.861a2.865,2.865,0,0,1,.541,2.5L10.4,11.156a1.116,1.116,0,0,0,.305,1.076l4.217,4.113a1.183,1.183,0,0,0,1.105.3l3.757-.916a3.054,3.054,0,0,1,2.564.527l3.957,3a2.874,2.874,0,0,1,.28,4.371l-1.775,1.731a4.849,4.849,0,0,1-4.937,1.175,32.1,32.1,0,0,1-12.03-7.4A31.1,31.1,0,0,1,.254,7.4,4.575,4.575,0,0,1,1.461,2.586Z" transform="translate(0 -0.001)" fill="#867874" stroke="#000" stroke-width="0" fill-rule="evenodd"/>
</svg>
